<?xml version="1.0" encoding="UTF-8"?>
<svg width="923px" height="923px" viewBox="0 0 923 923" version="1.1" xmlns="http://www.w3.org/2000/svg" xmlns:xlink="http://www.w3.org/1999/xlink">
    <!-- Generator: Sketch 57.1 (83088) - https://sketch.com -->
    <title>Logo</title>
    <desc>Created with Sketch.</desc>
    <g id="Welcome" stroke="none" stroke-width="1" fill="none" fill-rule="evenodd">
        <g id="Desktop-HD" transform="translate(-223.000000, -51.000000)">
            <g id="Logo" transform="translate(224.000000, 52.000000)">
                <circle id="Oval" stroke="#FFFFFF" stroke-width="1" fill="#4A90E2" fill-rule="evenodd" cx="460.5" cy="460.5" r="460.5"></circle>
                <path d="M276.307495,422.574707 C264.839908,422.574707 255.564794,421.338025 248.481873,418.864624 C241.398951,416.391223 236.620862,413.243305 234.147461,409.420776 C233.023188,407.846794 232.011357,405.485856 231.111938,402.337891 C230.21252,399.189926 230.549797,395.704731 232.123779,391.882202 C235.271744,394.355603 238.700726,396.210626 242.410828,397.447327 C246.120929,398.684027 249.549911,399.527219 252.697876,399.976929 C256.520405,400.651493 260.230451,400.98877 263.828125,400.98877 C270.573764,400.98877 277.150664,400.426641 283.559021,399.302368 C289.967378,398.178095 296.319427,396.604136 302.615356,394.580444 C305.313612,381.089166 307.955615,368.947198 310.541443,358.154175 C313.127271,347.361152 316.106551,338.591953 319.47937,331.846313 C323.077044,324.42611 326.843303,317.736785 330.778259,311.778137 C334.713215,305.819489 339.097815,300.760336 343.93219,296.600525 C348.766565,292.440714 354.106782,289.236584 359.953003,286.988037 C365.799224,284.739491 372.544762,283.615234 380.189819,283.615234 C385.811185,283.615234 390.251998,284.739491 393.51239,286.988037 C396.772782,289.236584 399.246146,292.047224 400.932556,295.420044 C402.618966,298.792864 403.630797,302.446697 403.968079,306.381653 C404.305361,310.316609 404.473999,313.970442 404.473999,317.343262 C404.473999,324.763465 402.675189,332.85811 399.077515,341.627441 C395.47984,350.396772 390.420687,359.053546 383.899902,367.598022 C377.379118,376.142499 369.565536,384.237144 360.458923,391.882202 C351.35231,399.52726 341.177791,405.823095 329.935059,410.769897 C326.11253,425.610304 322.346271,440.281849 318.636169,454.784973 C314.926068,469.288097 311.272235,481.261427 307.674561,490.705322 C304.526596,499.474609 300.535486,509.255683 295.701111,520.048706 C290.866736,530.841729 284.96439,541.184887 277.993896,551.078491 C282.266135,553.776747 286.594522,556.587388 290.979187,559.510498 C295.363852,562.433608 299.804665,565.075611 304.301758,567.436584 C308.798851,569.797558 313.352089,571.765007 317.961609,573.338989 C322.571129,574.912972 327.461644,575.699951 332.633301,575.699951 C338.029812,575.475097 343.313817,574.688117 348.485474,573.338989 C352.982566,572.214716 357.704443,570.359693 362.651245,567.773865 C367.598047,565.188036 372.207498,561.534203 376.479736,556.812256 C378.053719,559.510512 378.559634,563.557834 377.997498,568.954346 C377.435361,574.350857 375.692764,579.747287 372.769653,585.143799 C369.846543,590.54031 365.686795,595.262187 360.290283,599.30957 C354.893772,603.356954 348.148234,605.380615 340.053467,605.380615 C331.50899,605.380615 323.52677,604.200146 316.106567,601.839172 C308.686364,599.478199 301.715975,596.611345 295.19519,593.238525 C288.674406,589.865706 282.547209,586.211873 276.813416,582.276917 C271.079622,578.34196 265.739405,574.688127 260.792603,571.315308 C254.046963,577.836092 246.626872,583.120097 238.532104,587.16748 C230.437337,591.214864 221.443287,593.238525 211.549683,593.238525 C203.67977,593.238525 197.383935,591.046226 192.661987,586.66156 C187.94004,582.276895 185.803953,576.374549 186.253662,568.954346 C186.478517,566.25609 187.265496,563.051959 188.614624,559.341858 C189.963752,555.631756 192.493329,552.090349 196.20343,548.717529 C199.913532,545.34471 205.028898,542.477856 211.549683,540.116882 C218.070467,537.755909 226.50239,536.575439 236.845703,536.575439 C240.668232,536.575439 244.322065,536.968929 247.807312,537.75592 C251.292559,538.542912 254.721541,539.49853 258.09436,540.622803 C260.567761,536.12571 263.041125,530.954131 265.514526,525.10791 C267.987927,519.26169 270.686143,512.628577 273.609253,505.208374 C278.78091,491.042532 283.277935,476.820689 287.100464,462.542419 C290.922993,448.26415 294.183336,434.379584 296.881592,420.888306 C293.733627,421.56287 290.417071,422.012572 286.931824,422.237427 C283.446577,422.462281 279.905169,422.574707 276.307495,422.574707 Z M220.31897,575.025391 C223.24208,573.901117 226.614849,572.776861 230.437378,571.652588 C234.259907,570.528315 238.644507,567.380397 243.591309,562.20874 C240.218489,561.084467 237.632699,560.522339 235.833862,560.522339 C227.739095,560.522339 221.83675,561.702808 218.126648,564.063782 C214.416546,566.424755 212.561523,568.729481 212.561523,570.978027 C212.561523,572.55201 213.236077,573.732479 214.585205,574.51947 C215.934333,575.306461 217.845569,575.4751 220.31897,575.025391 Z M347.810913,340.27832 C346.68664,343.65114 345.225107,348.597868 343.42627,355.118652 C341.627432,361.639404 339.716197,369.171954 337.692505,377.716431 C349.834655,369.846518 359.559473,360.852468 366.867249,350.734009 C374.175024,340.61555 377.828857,330.497243 377.828857,320.378784 C377.828857,314.307709 376.030047,311.272217 372.432373,311.272217 C369.284408,311.272217 365.237085,313.689368 360.290283,318.523743 C355.343481,323.358117 351.183733,330.609571 347.810913,340.27832 Z M464.847168,338.591919 C464.172604,341.06532 462.879709,343.482471 460.968445,345.843445 C459.05718,348.204419 456.921093,350.115654 454.56012,351.577209 C452.199146,353.038765 449.781995,353.994383 447.308594,354.444092 C444.835193,354.893801 442.811531,354.444099 441.237549,353.094971 C436.515601,349.497296 434.042237,345.618612 433.817383,341.458801 C433.592528,337.29899 434.604359,333.364093 436.852905,329.653992 C439.101452,325.94389 441.912093,322.795972 445.284912,320.210144 C448.657732,317.624316 451.580798,316.10657 454.054199,315.65686 C456.5276,315.207151 458.607474,315.713066 460.293884,317.174622 C461.980294,318.636177 463.273189,320.547413 464.172607,322.908386 C465.072026,325.26936 465.577941,327.911362 465.690369,330.834473 C465.802796,333.757583 465.521732,336.343373 464.847168,338.591919 Z M418.30249,410.432617 C419.426763,409.083489 421.56285,407.959233 424.710815,407.059814 C427.85878,406.160396 431.119124,405.429629 434.491943,404.867493 C437.864763,404.305356 440.956468,403.968079 443.767151,403.855652 C446.577834,403.743225 448.208006,403.799438 448.657715,404.024292 C448.882569,404.249147 448.320441,406.610085 446.971313,411.107178 C445.622186,415.604271 443.935801,420.888275 441.912109,426.959351 C439.888418,433.030426 437.752331,439.270049 435.503784,445.678406 C433.255238,452.086763 431.568853,457.314555 430.44458,461.361938 C429.320307,465.409322 427.971199,469.96256 426.397217,475.02179 C424.823234,480.081019 423.417914,485.027747 422.181213,489.862122 C420.944513,494.696496 420.101321,499.249734 419.651611,503.521973 C419.201902,507.794211 419.539179,511.054554 420.663452,513.303101 C421.787725,516.001356 423.024407,517.856379 424.373535,518.868225 C425.722663,519.880071 427.184196,520.385986 428.758179,520.385986 C433.255272,520.385986 438.932766,517.912622 445.790833,512.96582 C452.648899,508.019018 459.619288,502.116672 466.702209,495.258606 C473.785131,488.400539 480.36203,481.43015 486.433105,474.347229 C492.504181,467.264308 497.001206,461.586813 499.924316,457.314575 C501.723154,455.066029 503.578176,453.604496 505.489438,452.929932 C507.400705,452.255368 508.974664,452.367793 510.211365,453.267212 C511.448065,454.166625 512.122619,455.628164 512.235046,457.651855 C512.347474,459.675547 511.616707,462.036486 510.042725,464.734741 C506.44505,471.030671 501.161046,478.506976 494.190552,487.163879 C487.220058,495.820783 479.799966,504.14028 471.930054,512.12262 C464.060141,520.104959 456.358985,526.90671 448.826355,532.528076 C441.293725,538.149442 435.166528,541.072509 430.44458,541.297363 C426.622051,541.522218 422.855792,540.903877 419.145688,539.442322 C415.435589,537.980767 412.06282,535.957105 409.027283,533.371277 C405.991745,530.785448 403.462168,527.749956 401.438477,524.264709 C399.414785,520.779463 398.290528,517.125629 398.065674,513.303101 C397.39111,507.681735 397.39111,499.980579 398.065674,490.199402 C398.740238,480.418225 399.97692,470.412344 401.775757,460.181458 C403.574594,449.950571 405.879319,440.225754 408.690002,431.006714 C411.500685,421.787674 414.704816,414.92971 418.30249,410.432617 Z M492.16687,502.172852 C489.693469,499.699451 487.950872,497.282299 486.939026,494.921326 C485.92718,492.560352 485.196413,490.255626 484.746704,488.00708 C484.296995,485.533679 484.296995,483.060315 484.746704,480.586914 C485.646123,477.438949 486.99523,474.515883 488.794067,471.817627 C490.36805,469.344226 492.504137,466.814649 495.202393,464.228821 C497.900648,461.642992 501.498269,459.225841 505.995361,456.977295 C508.918472,449.781946 511.560474,442.193216 513.921448,434.210876 C516.282421,426.228537 518.362296,418.977083 520.161133,412.456299 C522.184825,404.811241 523.983635,397.166298 525.557617,389.52124 C531.178983,370.408596 534.10205,354.837646 534.326904,342.807922 C534.551759,330.778199 534.326908,322.852192 533.652344,319.029663 L532.977783,314.307739 C532.528074,312.958611 532.134584,311.440865 531.797301,309.754456 C531.46002,308.068046 531.066531,306.437874 530.616821,304.863892 C533.090222,303.514764 535.282522,302.390507 537.193787,301.491089 C539.105051,300.59167 540.735223,299.917117 542.084351,299.467407 C543.658333,298.792843 545.119866,298.343141 546.468994,298.118286 C551.640651,296.994013 556.531166,296.375672 561.140686,296.263245 C565.750206,296.150817 568.279783,296.99401 568.729492,298.792847 C568.954347,299.91712 569.235411,301.940781 569.572693,304.863892 C569.909975,307.787002 570.078613,311.384622 570.078613,315.65686 C570.078613,319.929099 569.741336,324.707188 569.066772,329.991272 C568.392209,335.275356 567.155527,340.840425 565.356689,346.686646 C563.782707,351.858302 561.64662,359.053543 558.948364,368.272583 C556.474963,376.142495 553.21462,386.654292 549.167236,399.808289 C545.119853,412.962285 539.835848,429.769917 533.315063,450.231689 C540.060703,447.983143 547.480794,445.847056 555.575562,443.823364 C563.670329,441.799672 571.933613,440.113288 580.365662,438.76416 C588.797711,437.415032 597.229633,436.403202 605.661682,435.728638 C614.093731,435.054074 621.907313,434.941648 629.102661,435.391357 C630.451789,435.391357 631.407407,436.009698 631.969543,437.246399 C632.531676,438.483099 632.531676,439.775994 631.969543,441.125122 C631.407407,442.47425 630.170725,443.767145 628.25946,445.003845 C626.348196,446.240546 623.593768,446.971312 619.996094,447.196167 C615.499001,447.645876 610.552273,448.151792 605.155762,448.713928 C599.75925,449.276065 594.194182,450.063044 588.460388,451.07489 C582.726595,452.086736 577.0491,453.323418 571.427734,454.784973 C565.806368,456.246528 560.522364,457.989126 555.575562,460.012817 L544.108032,464.060181 C540.960067,465.184454 537.643511,466.477349 534.158264,467.938904 C530.673017,469.400459 527.806164,470.693354 525.557617,471.817627 L517.800171,496.439087 C530.84174,505.658127 540.903834,515.10188 547.986755,524.77063 C555.069677,534.439379 560.185043,543.321004 563.333008,551.415771 C567.155537,560.859666 569.291624,570.078568 569.741333,579.072754 C569.741333,588.966358 568.2798,598.916027 565.356689,608.922058 C562.433579,618.92809 558.554895,628.484268 553.72052,637.590881 C548.886145,646.697494 543.264864,655.18563 536.856506,663.055542 C530.448149,670.925454 523.702611,677.670992 516.61969,683.292358 C509.536769,688.913724 502.341528,693.185898 495.033752,696.109009 C487.725977,699.032119 480.8118,700.156375 474.291016,699.481812 C469.569068,699.032102 465.634171,697.514356 462.486206,694.928528 C459.338241,692.342699 456.977303,689.082356 455.40332,685.1474 C453.829338,681.212444 452.929933,676.827844 452.705078,671.993469 C452.480223,667.159094 452.929926,662.381005 454.054199,657.659058 C454.953618,652.93711 456.864854,644.167911 459.787964,631.351196 C462.261365,620.558174 466.083836,604.874798 471.255493,584.300598 C476.42715,563.726399 483.397539,536.350757 492.16687,502.172852 Z M512.066406,518.025024 C508.918441,529.267756 506.164013,539.610962 503.80304,549.05481 C501.442066,558.498704 499.474617,566.818201 497.900635,574.01355 C495.876943,582.333171 494.302984,589.865689 493.178711,596.611328 C491.155019,605.155804 489.075145,613.587727 486.939026,621.907349 C484.802907,630.22697 483.116522,637.703275 481.879822,644.336487 C480.643121,650.969699 480.137206,656.309916 480.362061,660.3573 C480.586915,664.404683 482.048448,666.428345 484.746704,666.428345 C491.267489,666.878054 498.069239,664.348477 505.152161,658.839539 C512.235082,653.3306 518.699556,646.360211 524.545776,637.928162 C530.391997,629.496113 535.226299,620.389636 539.048828,610.608459 C542.871357,600.827283 544.782593,591.777019 544.782593,583.457397 C544.782593,574.238357 543.32106,565.131881 540.397949,556.137695 C538.374257,551.415748 536.013319,546.806274 533.315063,542.309204 C530.841662,538.486675 527.862383,534.38314 524.377136,529.998474 C520.891889,525.613809 516.788354,521.622699 512.066406,518.025024 Z M750.52356,467.095703 C743.77792,476.989307 736.132977,486.601699 727.588501,495.933167 C719.044025,505.264634 709.993761,513.584131 700.437439,520.891907 C690.881117,528.199683 681.100087,534.102028 671.094055,538.599121 C661.088024,543.096214 651.363206,545.344727 641.919312,545.344727 C636.972509,545.344727 631.632292,544.164257 625.898499,541.803284 C620.164705,539.44231 614.936913,535.788477 610.214966,530.841675 C605.493018,525.894873 601.72676,519.486612 598.916077,511.616699 C596.105394,503.746787 595.262201,494.190608 596.386475,482.947876 C597.285893,473.728836 600.152747,464.004018 604.987122,453.773132 C609.821496,443.542246 615.780055,434.154706 622.862976,425.610229 C629.945897,417.065753 637.928117,409.982938 646.809875,404.361572 C655.691634,398.740206 664.629472,395.929565 673.623657,395.929565 C682.168134,395.929565 688.351543,398.065652 692.174072,402.337891 C695.996601,406.610129 697.682986,411.894134 697.233276,418.190063 C696.558712,425.160557 694.591264,431.568818 691.330872,437.415039 C688.070479,443.26126 684.191795,448.545264 679.694702,453.267212 C675.197609,457.989159 670.41952,462.261333 665.360291,466.083862 C660.301061,469.906391 655.522972,473.391586 651.025879,476.539551 C646.079077,479.91237 641.3572,483.116501 636.860107,486.152039 C632.363015,489.187576 628.428117,491.942004 625.055298,494.415405 C625.280152,500.036771 626.291983,504.758648 628.09082,508.581177 C629.889657,512.403706 632.13817,515.495411 634.836426,517.856384 C637.534681,520.217358 640.626386,521.903742 644.111633,522.915588 C647.59688,523.927434 651.138288,524.43335 654.735962,524.43335 C662.38102,524.43335 670.36324,522.016198 678.682861,517.181824 C687.002483,512.347449 695.153341,506.501316 703.135681,499.64325 C711.118021,492.785183 718.538113,485.646155 725.396179,478.225952 C732.254246,470.805749 737.93174,464.397488 742.428833,459.000977 C744.002815,457.202139 745.632987,456.134096 747.319397,455.796814 C749.005807,455.459532 750.354914,455.684383 751.36676,456.471375 C752.378606,457.258366 752.884521,458.607473 752.884521,460.518738 C752.884521,462.430002 752.097542,464.622302 750.52356,467.095703 Z M664.17981,415.154541 C661.481554,415.154541 658.277423,416.503649 654.567322,419.201904 C650.85722,421.90016 647.203387,425.778844 643.605713,430.838074 C640.008039,435.897303 636.63527,442.080713 633.487305,449.388489 C630.33934,456.696265 627.978401,465.071974 626.404419,474.515869 C629.102675,472.492177 632.025741,470.412303 635.173706,468.276184 C638.321671,466.140065 641.469589,463.83534 644.617554,461.361938 C654.286303,453.941735 661.031841,447.421049 664.85437,441.799683 C668.676899,436.178317 670.812986,431.344014 671.262695,427.296631 C671.712405,423.024393 671.262702,419.932688 669.913574,418.021423 C668.564446,416.110159 666.653211,415.154541 664.17981,415.154541 Z" id="Life" fill="#FFFFFF" fill-rule="nonzero"></path>
            </g>
        </g>
    </g>
</svg>